<?xml version="1.0" standalone="no"?>
<!DOCTYPE svg PUBLIC "-//W3C//DTD SVG 20010904//EN"
 "http://www.w3.org/TR/2001/REC-SVG-20010904/DTD/svg10.dtd">
<svg version="1.0" xmlns="http://www.w3.org/2000/svg"
 width="492.000000pt" height="167.000000pt" viewBox="0 0 492.000000 167.000000"
 preserveAspectRatio="xMidYMid meet">

<g transform="translate(0.000000,167.000000) scale(0.100000,-0.100000)"
fill="#000000" stroke="none">
<path d="M535 1331 c-179 -52 -314 -164 -393 -326 -43 -87 -62 -170 -62 -268
0 -112 14 -174 61 -276 33 -70 54 -98 122 -165 95 -93 169 -135 297 -167 328
-83 675 138 746 472 20 94 14 230 -15 319 -63 198 -237 362 -437 414 -83 21
-241 20 -319 -3z m300 -66 c185 -48 334 -198 391 -391 25 -85 23 -221 -6 -304
-60 -177 -198 -310 -379 -364 -86 -25 -221 -21 -312 9 -240 82 -398 320 -375
566 21 226 189 424 409 484 70 18 199 19 272 0z"/>
<path d="M561 1244 c-181 -48 -333 -205 -376 -385 -88 -376 242 -723 615 -645
144 30 259 107 339 226 200 300 42 712 -309 805 -69 19 -199 18 -269 -1z m466
-176 c6 -7 10 -21 10 -31 0 -14 -6 -18 -24 -14 -13 2 -26 1 -29 -4 -2 -4 -20
-6 -39 -4 -19 3 -35 2 -35 -3 0 -4 -15 -8 -32 -9 -98 -6 -153 -14 -159 -24 -4
-7 -12 -8 -19 -4 -7 4 -13 -1 -17 -14 -3 -12 -11 -21 -18 -21 -24 0 -42 -409
-22 -517 9 -51 -2 -55 -43 -15 -25 25 -29 38 -35 115 -7 81 -2 231 12 360 l6
59 -29 -6 c-16 -2 -45 -9 -64 -15 -75 -23 -140 -5 -140 39 0 13 11 19 43 24
61 9 191 39 197 46 3 3 16 6 30 7 14 1 75 11 135 22 129 23 258 27 272 9z"/>
<path d="M2090 1199 c-30 -4 -98 -14 -150 -24 -52 -10 -104 -18 -115 -18 -11
-1 -22 -4 -25 -7 -5 -6 -185 -47 -230 -52 -30 -4 -29 -32 1 -63 18 -19 21 -19
96 -2 43 9 88 19 101 23 l23 7 -8 -109 c-4 -60 -8 -174 -8 -254 0 -163 10
-202 57 -226 36 -19 44 -13 28 17 -9 17 -11 83 -7 258 7 256 12 301 33 301 8
0 14 9 14 20 0 14 7 20 21 20 13 0 18 4 13 12 -5 7 0 9 14 6 11 -3 42 -1 69 4
26 5 66 11 88 13 22 2 42 4 45 6 5 2 35 4 95 7 23 2 31 7 32 21 1 11 -4 24
-11 30 -16 14 -105 19 -176 10z"/>
<path d="M4035 1128 c-48 -56 -130 -180 -195 -295 -53 -92 -53 -93 -92 -93
-24 0 -41 -5 -44 -14 -8 -20 13 -56 32 -56 9 0 14 -5 11 -12 -67 -152 -81
-223 -43 -223 13 0 25 19 46 75 15 41 37 96 49 123 l21 47 86 0 85 0 -7 -85
c-6 -70 -4 -89 10 -110 29 -44 46 -32 47 33 1 31 4 84 8 117 l6 59 40 10 c22
5 43 14 47 20 11 16 10 -10 -3 -63 -12 -55 -5 -77 33 -97 24 -12 36 -13 54 -5
13 6 23 14 22 18 -3 8 16 37 54 86 l17 22 1 -28 c0 -68 -88 -269 -149 -338
-34 -40 -38 -49 -26 -59 50 -41 166 115 215 291 11 39 22 74 25 77 3 3 5 -16
5 -41 0 -42 3 -47 25 -53 14 -4 29 -3 33 1 4 4 7 41 8 83 1 169 2 175 37 149
17 -11 17 -16 1 -86 -16 -70 -16 -76 1 -107 32 -60 69 -56 116 12 31 46 49
104 31 104 -6 0 -31 -23 -56 -52 -25 -29 -48 -49 -51 -46 -5 5 1 41 30 165 4
16 17 24 55 32 82 18 77 26 72 -118 l-5 -130 27 -7 c15 -3 30 -4 33 -1 3 3 7
65 8 137 2 85 7 135 15 145 10 12 10 18 -1 31 -11 13 -25 15 -74 10 -33 -3
-70 -8 -82 -12 -22 -6 -22 -5 -12 27 7 19 16 38 20 44 21 23 2 75 -27 75 -6 0
-24 -38 -39 -85 -27 -84 -28 -85 -60 -85 -20 0 -35 6 -39 15 -3 8 -17 15 -31
15 -24 0 -25 -2 -25 -62 -1 -61 -1 -62 -15 -36 -13 23 -51 47 -59 36 -2 -1
-24 -33 -49 -69 -81 -115 -93 -113 -56 7 l21 68 -22 18 c-28 23 -37 17 -50
-32 -11 -39 -12 -40 -55 -40 -55 0 -55 -4 -14 166 40 167 41 205 10 238 -14
14 -28 26 -32 26 -4 0 -24 -19 -44 -42z m5 -203 c-16 -65 -30 -126 -30 -134 0
-34 -17 -43 -84 -46 -36 -1 -66 0 -66 4 0 4 20 41 45 83 25 43 45 82 45 88 0
5 4 10 8 10 4 0 16 15 27 33 30 51 80 107 83 93 1 -7 -11 -66 -28 -131z"/>
<path d="M4426 1008 c-35 -78 -37 -94 -12 -105 28 -13 46 -6 46 18 0 10 9 42
20 70 21 57 19 69 -11 69 -14 0 -26 -15 -43 -52z"/>
<path d="M4726 1011 c-37 -77 -39 -96 -13 -108 28 -13 47 -6 47 16 0 10 9 43
19 74 20 58 19 67 -11 67 -12 0 -26 -17 -42 -49z"/>
<path d="M2594 908 c-25 -72 -32 -83 -54 -86 -53 -6 -57 -12 -23 -41 l32 -27
-15 -67 c-17 -74 -14 -102 14 -137 27 -33 64 -21 102 35 30 43 47 105 30 105
-5 0 -29 -23 -54 -52 -25 -29 -48 -49 -51 -46 -5 5 1 40 30 164 4 18 18 25 76
38 39 9 83 16 98 16 l26 0 -22 -18 c-39 -30 -73 -85 -73 -116 1 -42 33 -110
61 -130 28 -19 75 -20 107 -2 24 13 122 132 122 148 0 13 -39 -10 -90 -52 -78
-64 -120 -77 -140 -41 -13 25 -13 54 1 46 14 -9 112 42 144 75 22 23 24 31 16
53 -11 30 -38 46 -78 49 -15 1 -34 10 -41 20 -15 21 -62 23 -131 7 -24 -5 -45
-8 -47 -6 -2 2 6 28 18 56 16 39 19 57 11 70 -24 38 -40 23 -69 -61z m251
-164 c-16 -14 -38 -30 -48 -35 -16 -9 -17 -8 -6 9 13 21 57 52 74 51 6 0 -3
-11 -20 -25z"/>
<path d="M3387 830 c-14 -16 -28 -48 -32 -71 l-7 -42 -13 30 c-7 17 -23 38
-36 47 -25 17 -64 21 -73 7 -3 -4 -16 -6 -29 -4 -20 4 -29 -3 -49 -39 -37 -62
-51 -119 -37 -155 28 -75 86 -93 140 -45 29 26 35 27 66 18 l35 -11 -4 -118
c-3 -114 -2 -118 19 -123 12 -3 26 -3 31 0 6 3 8 59 4 135 l-5 129 34 10 c19
6 57 14 86 17 37 5 50 10 47 20 -5 12 -58 37 -66 31 -1 -2 -24 -6 -50 -9 -48
-7 -48 -6 -48 22 0 78 34 138 71 126 26 -9 26 30 0 45 -33 17 -58 11 -84 -20z
m-82 -80 c9 -15 -32 -87 -75 -130 -46 -46 -80 -53 -80 -16 0 54 50 153 71 140
5 -3 17 0 26 5 23 13 50 14 58 1z m36 -113 c-17 -17 -24 -1 -9 22 11 18 14 19
16 5 2 -9 -1 -21 -7 -27z"/>
<path d="M2362 820 c-12 -5 -28 -7 -36 -4 -9 3 -17 -3 -21 -15 -6 -19 -8 -19
-21 -6 -33 32 -86 4 -146 -78 -50 -67 -51 -106 -4 -153 19 -19 44 -34 57 -34
22 0 22 0 3 -14 -19 -15 -19 -15 2 -36 l20 -21 39 26 c26 18 45 25 62 20 16
-4 25 -1 29 10 4 8 28 25 55 36 34 15 49 27 49 40 0 27 -35 59 -64 59 -32 0
-38 11 -30 59 5 32 13 43 35 53 32 14 34 20 19 49 -12 21 -15 22 -48 9z m-87
-87 c-7 -16 -19 -41 -27 -57 -21 -47 -77 -101 -90 -88 -16 16 -3 54 34 100 31
37 73 71 90 72 4 0 1 -12 -7 -27z m25 -136 c0 -17 -10 -28 -35 -40 l-34 -16
27 39 c31 45 42 50 42 17z"/>
</g>
</svg>
